<svg xmlns="http://www.w3.org/2000/svg" viewBox="0 0 1536.06 375.06">
    <defs>
        <style>.cls-1{fill:none;}</style>
    </defs>
    <title>Asset 2</title>
    <g id="Layer_2" data-name="Layer 2">
        <g id="Layer_1-2" data-name="Layer 1" fill="#fff">
            <path class="cls-1"
                  d="M1294.6,302.77a47.44,47.44,0,0,0-23.45-5.94c-1,0-2,0-3,0-6.79.16-7.27.65-7.28,7.53,0,14.33,0,28.66,0,43,0,4,.23,8,.35,12,.14,4.32,2.64,6.7,6.58,7.68a42.69,42.69,0,0,0,23.66-.8c9.85-3.14,16-9.83,18.31-20A48.88,48.88,0,0,0,1310,324C1307.77,314.82,1303,307.51,1294.6,302.77Z"/>
            <path class="cls-1"
                  d="M759.47,322.77c-2.35.14-3.29,1-3.26,3.26.06,5.15,0,10.31,0,15.46h0c0,.66,0,1.33,0,2,.16,5.64.26,11.28.52,16.92.13,3,1.91,4.83,4.7,5.78a22.53,22.53,0,0,0,14.19.37c5.64-1.75,8.8-5.84,9.58-11.59a30.71,30.71,0,0,0-4.67-21.43C775.58,325.91,768.64,322.25,759.47,322.77Z"/>
            <path class="cls-1"
                  d="M881,100.47c1.94.85,3.91,1.62,5.9,2.34.31.11.76-.15,1.23-.26-.22-.31-.29-.49-.42-.56-2-1.08-4-2.18-6-3.16-.28-.14-.85.3-1.29.48C880.53,99.71,880.64,100.33,881,100.47Z"/>
            <path class="cls-1"
                  d="M1148.33,300.14c-2.18-11.63-10.58-18.15-22.39-17.21-4,.31-4.64.84-4.7,4.8-.1,5.65,0,11.3,0,16.95s-.07,11.3,0,16.95c.06,3.88.69,4.59,4.51,5.24a55.34,55.34,0,0,0,6.45.51c9,.46,12.73-4.4,14.94-10.56A31.49,31.49,0,0,0,1148.33,300.14Z"/>
            <path class="cls-1"
                  d="M383.4,33c-1,.27-2.14.59-3.26.84-1.5.33-2.09,1.34-1.16,2.45a3.07,3.07,0,0,0,2.8.64c1-.4,1.65-1.55,2.37-2.45a1.93,1.93,0,0,0,.23-1.23C384.38,33.2,383.8,33.14,383.4,33Z"/>
            <path class="cls-1"
                  d="M756.22,299.9c0,4.64,0,9.29,0,13.93,0,1.49.07,2.88,1.92,3.59,7.4,2.84,16.35-1.2,18.57-8.73a22.86,22.86,0,0,0-3.87-21.15c-3-4-7.33-5.59-12.21-5.54-3.54,0-4.33.85-4.41,4.47-.09,4.48,0,8.95,0,13.43Z"/>
            <path class="cls-1"
                  d="M554.27,313a5.72,5.72,0,0,0-.79-1.19c-.48.41-1.19.72-1.39,1.23-3.21,8-6.32,16.1-9.55,24.12-.9,2.23.23,2.68,2,2.71,2.83,0,5.66,0,8.49,0s5.67,0,8.5,0c1.74,0,3-.41,2.06-2.68C560.44,329.1,557.39,321,554.27,313Z"/>
            <path class="cls-1"
                  d="M199.67,305.3c-3.74-7.38-10.63-9-18.27-8.43-3.54.26-4.07.68-4.15,4.16-.12,4.65,0,9.32,0,14s0,9.32,0,14c0,2.54.92,4.16,3.67,4.34s5.28.56,7.93.56a11.24,11.24,0,0,0,9.62-5.38C203.4,321.06,203.61,313.1,199.67,305.3Z"/>
            <path class="cls-1"
                  d="M1518.4,293.78c-1,1.21-2.16,1.94-2.36,2.87-.43,2,1,2.48,2.7,2.39s3.65-.42,3.24-2.6C1521.81,295.53,1520,294.91,1518.4,293.78Z"/>
            <path class="cls-1"
                  d="M1509.82,291.68c-4.69,5.33-4,14.3,1.33,18.8a10.93,10.93,0,0,0,14.95-.42.54.54,0,0,0,0-.11c-3.3,0-5.42-1.59-6.5-4.71a4.43,4.43,0,0,0-.93-1.74,9.46,9.46,0,0,0-1.92-1.17A6.07,6.07,0,0,0,1516,304a26.23,26.23,0,0,1-.16,3.46c-.2.77-1,1.37-1.57,2-.67-.55-1.91-1.09-1.93-1.66q-.24-7.2,0-14.41a2.6,2.6,0,0,1,1.75-1.84,49.76,49.76,0,0,1,7.91.22c1.85.2,3.6,1,4,3.17s.75,4.55-1.56,5.78c-2.49,1.33-1.63,2.75-.69,4.45s1.59,3.17,2.38,4.76h.17l-.11.11a12.34,12.34,0,0,0,1.1-19A12.19,12.19,0,0,0,1509.82,291.68Z"/>
            <path class="cls-1"
                  d="M1121.13,104.89c-.49.09-.76,1.37-1.13,2.11.65.29,1.48,1,1.91.8a24.73,24.73,0,0,0,3.67-2.6C1123.58,105,1122.3,104.67,1121.13,104.89Z"/>
            <path
                    d="M818.53,78.76c.36.33.77.61,1.15.92-.15-.55-.33-1.1-.46-1.65s-.22-1.19-.33-1.79c.63-.09,1.36-.4,1.89-.21,1,.38,2.53.85,2.8,1.64.69,2,2,1.35,3.18,1.11a18.86,18.86,0,0,0,3.17-1.41c1.75-.76,3.32-.14,3.31,1.64,0,4.07,3.42,4.59,5.78,5.59,4.05,1.72,7.74,4.37,12.23,5a2.05,2.05,0,0,1,1.29.67c2.27,3.22,5,3.75,8.81,2.66a10,10,0,0,1,7.38,1.32c2.58,1.73,4.73,3.89,8,4.44,1,.16,1.83,1.29,2.66,2.06,1.37,1.29,2.46,3.25,4.06,3.82,2.06.73,4.16.83,5.14,3.26.18.46,1.39.68,2.14.72a19.58,19.58,0,0,0,4.9,0,20.54,20.54,0,0,0,4.82-1.81c.31-.15.46-1.2.27-1.67a2,2,0,0,0-1.36-1.11c-.56-.08-1.19.38-1.8.56-1.63.46-6.42-.9-6.38-2.14.09-2.44-1.54-2-2.77-2.61s-2.17-1.43-3.31-2-2.5-1.55-3.44-1.27c-3.29,1-5.69-1.33-7.4-2.78C871,90.9,867.9,89,863.56,89.92c-1.28.26-2.53.64-3.82.78a28.7,28.7,0,0,1-4.35.1c-.12,0-.46-1.28-.25-1.46,1.15-1,2.45-1.9,3.69-2.82a46.24,46.24,0,0,1-4.66-1.71,33.21,33.21,0,0,1-3.25-2.26c-1.81-1.17-3.92-3.48-5.43-3.15-2.61.57-2.9-.86-4.07-2.17-2.64-2.93-6.56-5.53-9.94-4.65a7.68,7.68,0,0,1-6.84-1.21c-2.06-1.28-4.95-2.57-5.62-4.49-1.33-3.86-4.5-.39-5.88-2.17-2.53-3.25-5.52-3-8.93-1.75a3.68,3.68,0,0,1-2.7-.92c.23-2.78-1.13-3.24-3.46-2.86a2.59,2.59,0,0,1-1.77-.76,5.36,5.36,0,0,1-.88-1.6,3.68,3.68,0,0,1,1.36-.28c2.9.68,5.78,1.45,8.68,2.15a5.44,5.44,0,0,0,1.45,0,5.13,5.13,0,0,0-1.08-1.26,18.5,18.5,0,0,0-3.14-1.51c-9.29-3.16-18.56-6.36-27.89-9.38a17.65,17.65,0,0,0-7.33-1.14,9.19,9.19,0,0,1-7.32-2.07c-1.32-1-2.85-2.61-4.55-.19-.26.38-1.76.4-2.25,0-2.12-1.66-5-2.15-6.34-5.14a6.34,6.34,0,0,0-7-3.93,28.73,28.73,0,0,1-5.49.08c-.8,0-2.16-.15-2.29-.54-1.11-3.48-4-2.22-6.27-2.54a27,27,0,0,1-5.35-.91c-9.89-3.47-19.73-7.06-29.59-10.62-2.47-.89-4.82-2.27-7.66-1-.66.3-1.81-.39-2.69-.73-2.31-.9-4.51-2.23-6.9-2.72-7.32-1.5-14.72-2.58-22-4.05-4.71-.94-10.08.48-14-3.85-.62-.69-2.21-.73-3.35-.72-2.81,0-5.64.48-8.44.33-2.31-.12-5.63,2.33-6.71-2.09,0-.16-1.16-.06-1.79-.08a10.5,10.5,0,0,1-2.32-.11,50.28,50.28,0,0,0-26.61.22,21.9,21.9,0,0,1-3.89.82c-.47,0-1-.65-1.52-1,.28-.37.48-.92.85-1.09a13.61,13.61,0,0,1,2.33-.67l1.38-.34a7.73,7.73,0,0,1-1.38-.34c-1.44-.67-2.86-1.4-4.29-2.1h-6c-.43.64-.83,1.83-1.29,1.85-3.35.15-6.9,1-9.71-1.85h-32c-3.41.37-6.83.78-10.25,1.11-4.56.45-9.33-.33-13.44,2.6a3,3,0,0,1-2.41.08c-2.91-1.2-5.7-.42-8.22.76-5.14,2.43-9.93,3.57-14.22-1.5-.31-.36-1.13-.29-1.71-.42.18.59.32,1.2.55,1.77.4,1,.85,2.07,1.28,3.1a23.23,23.23,0,0,1-3.77.58A9.85,9.85,0,0,1,478,7.29a15.16,15.16,0,0,1-1.64-.76l1.52-1.06,1.21-.81c-.37-.2-.72-.54-1.1-.57-1.11-.11-2.38-.46-3.32-.08-4.25,1.73-8.35,3.82-12.61,5.5-3.47,1.36-7.11.87-10.69.13.26-2.4-1.17-2-1.47-.54-1.15,5.77-5.9,5.93-10.1,7-.26.06-1.14-1.13-1.07-1.21,1.48-1.87,0-2.15-1.09-1.59a25.79,25.79,0,0,0-6.14,4.09c-4.21,4-10.16,3.85-14.89,6.56-.42.24-1.26-.27-1.91-.42-2-.47-4.31-1.77-6-1.24-3.7,1.16-7.13,3.21-10.64,5-3,1.54-6,3.21-9.09,4.76-.24.12-.77-.32-1.17-.5a3,3,0,0,1,.56-.78c1.77-1.24,3.57-2.44,5.34-3.69.65-.46,1.24-1,1.86-1.55a12.4,12.4,0,0,0-2.79-.42c-2,.16-4,.93-5.87.72-2.57-.28-4.37-.09-5.78,2.48-.65,1.16-3.24,2.6-3.81,2.22-2.27-1.53-2.89.25-3.89,1.36a27.33,27.33,0,0,0-3,3.67c-.36.57-.17,1.5-.23,2.26a12.11,12.11,0,0,0,2.18-.61c.86-.4,1.58-1.23,2.47-1.44,1.34-.31,3.47,2.81,3.11,2.78-2.75-.24-1.86,3.12-3.81,3.56-3.39.76-6.92,2.71-10.07,2.2-4.05-.66-7.21,1-10.74,1.72-1.13.23-2.23.59-3.34.89.29.94.57,1.89.86,2.84-1.68.15-3.47.72-5,.34-2.6-.63-1-1.92-.06-3a8.1,8.1,0,0,0-1,.1c-4.22.82-4.22.83-4.41-3.37a6.34,6.34,0,0,0-.2-1.45c-.5-1.71-1.61-2-2.83-.54a5.47,5.47,0,0,0-.59,2.48c-.33,2-2.08,2-3.45,2.08-1.76.15-1.18-1-.8-2-.41-.17-1-.58-1.19-.45-.68.4-1.53.91-1.77,1.56-1.62,4.53-4,8.08-9.31,8.72-.89.11-1.7,1-2.54,1.51-3.13,1.91-6.2,3.92-9.41,5.68a8.18,8.18,0,0,1-3.68.64c-.38,0-1-.85-1.11-1.39a13.16,13.16,0,0,1,.05-2.8c-.7.83-1.34,1.71-2.1,2.46a17,17,0,0,1-3.68,3.18c-.63.33-1.89-.55-2.86-.87a2.91,2.91,0,0,0-.84-.16c-1,2.86-4.36,2.08-6,3.71-2.66,2.68-6.16,3-9.39,4.09-.53.18-1.33.81-1.3,1.17.28,2.92-1.61,2.75-3.35,2.27-3.75-1-4.4-.94-6.44,2-1.21,1.74-1.85,4.8-4.91,1.9-.19-.18-1.16.35-1.71.66-1.85,1-4,1.72-5.45,3.17-4.71,4.77-10.6,6.86-16.81,8.79-3.91,1.2-7.45,3.65-11.1,5.64C224.7,97.5,222,99.57,219,100.8c-2.09.85.1,3.73-2.56,3.93a22.5,22.5,0,0,0-5.74,1.21,44.31,44.31,0,0,0-7.27,3.17c-5.53,3.13-10,8.23-17,8.64-9.23,5.9-20,9.1-28.26,16.73A9.07,9.07,0,0,1,154,137c-4.74.78-7.87,4-11.43,6.66-2.87,2.16-5.87,4.72-9.21,5.56-6.53,1.65-11.25,5.25-15.28,10.39a45.51,45.51,0,0,1-6.5,6.12c-1.15,1-2.23,1.08-2.94-.8-.83-2.16-2.06-1.72-3,0-2,3.39-2.36,7.91-6.9,9.4-.45,4.36-5.06,6.13-6.28,10-.19.61-1.22,1-1.87,1.43,0-.87-.19-1.9.19-2.59,1.14-2.11.09-2.73-1.66-3.62s-2.84.1-3.91,1.08c-4.41,4-8.81,8-13.15,12.12-2.53,2.39-4.55,5.81-7.52,7.15-3.65,1.64-5.91,4.44-8.74,6.8-1.21,1-2.9,1.4-4.33,2.15a13.32,13.32,0,0,0-3.68,2.18,41.6,41.6,0,0,0-4.92,6.29c-1.42,2.25-2.73,4.15-5.87,3.35a2.41,2.41,0,0,0-1.92,1c-.21.3.26,1.45.73,1.76.9.61,1.91,1.18.84,2.19-.85.82-2.28,1.85-3.21,1.65-4.15-.89-4-1-5.06,2.64-.35,1.22-.16,4.84-3,1.39-.14-.17-1.59.34-2,.86-1.13,1.43-1.93,3.12-3,4.56a15.28,15.28,0,0,1-3.41,3.49C11.66,243.73,6.33,247,1.05,250.35a7.68,7.68,0,0,0-1,1c.57,0,1.32.3,1.7,0a19.66,19.66,0,0,1,12.47-4c.3,0,.61-.25.92-.35C24.26,244.19,32.21,239,40.26,234a114.11,114.11,0,0,0,10.72-8c1.51-1.2,2.64-2.86,4.1-4.13s2.87-2.89,4.31-2.89a7.22,7.22,0,0,0,6.3-3.22,4.52,4.52,0,0,1,1.68-1c3-1.39,6.22-2.45,9-4.2,5.92-3.74,12.89-5.95,17.33-11.95a10.61,10.61,0,0,1,4.47-3.1c3-1.22,5.78-2.38,7-5.84.29-.86,1.81-1.28,2.75-1.93,5-3.47,10.07-6.89,16.1-8.48.73-.19,1.3-1,1.91-1.58a105.74,105.74,0,0,1,24.88-16.55c6.42-3.16,12.93-6.14,19.29-9.42,4.43-2.28,8.67-4.94,13-7.41,1.38-.78,2.17-2,.77-3s-2.19-1.45-.15-2.58c6.18-3.45,13.4-4.9,18.8-9.9.67-.61,2.12-.38,3.21-.54-.63.85-1.3,1.68-1.86,2.58a11.29,11.29,0,0,0-.77,1.82,8.52,8.52,0,0,0,1.59-.82c3.09-2.59,6.32-4.78,10.58-4.88A5,5,0,0,0,218,126c5.42-4.27,12.35-6.33,17.08-11.65a7.46,7.46,0,0,1,3-1.57c7.43-2.67,15.08-4.81,21.58-9.6a3,3,0,0,1,2.24-.71c2.3.89,2.62-1.18,3.86-2,2-1.42.79-3.73,2.39-5.42,4-4.21,9.4-3.58,14.12-5,2.72-.83,5.29-1.5,7.68-3.11a13.46,13.46,0,0,1,7.14-2.78c3.4-.18,6.73-1.73,10.07-2.75,2.38-.73,4.73-1.56,7.08-2.36,2.66-.89,5.36-1.68,7.95-2.73,5.06-2.05,10.09-4.16,15.06-6.4,2.4-1.09,4.55-2.8,7-3.74,4.4-1.69,8.75-3.39,12.38-6.53.11-.1.31-.1.47-.15,20-5.66,39.92-11.56,60-16.89C428,39.66,438.64,36,450,34.65c13.53-1.63,26.91-4.6,40.44-6.26C505.91,26.49,521.5,25,537.1,24c11.46-.68,23-.15,34.47-.15,2.95,0,5.85.5,8.22-2.31,1.1-1.31,4.33-1.45,4.65.25.47,2.55,2,2.09,3.36,2.35a16.84,16.84,0,0,0,4.94.57c1.74-.19,3.46,1.1,5.37-1.3,1.78-2.24,3.44,2.09,5.68,2.24.33,0,.68-.11,1-.05,2.25.45,4.48,1,6.74,1.38,1.75.29,3.94,1.11,5.24.41,4.88-2.59,10.14-3.11,15.42-3.74,1.91-.22,4.47-1.66,4.52,2.19,0,.28,1.1.79,1.69.78,2.75,0,5.5-.17,8.24-.25.78,0,1.93-.2,2.28.21,2.24,2.62,5.81,2.88,8.29,4.76,3.11,2.36,6.46,2.26,9.89,2.41.56,0,1.16-.71,1.74-1.1a12.29,12.29,0,0,0-1.52-.8c-.86-.31-1.75-.51-2.64-.76A11.72,11.72,0,0,1,667.77,30c1.12-.07,2.27.58,3.41.6a25.81,25.81,0,0,0,6.77-.36c1.48-.39,2.1-.88,3.11.82.6,1,2.43,1.43,3.79,1.89a38.94,38.94,0,0,0,4.31,1l-.15.13h.1l0,0c2.87-1.28,8.2,0,8.89,2.47a3.93,3.93,0,0,0,3.79,3.27c5.12.49,10.25.8,15.38,1.24,1.64.14,3.5.07,4.84.82,4,2.27,7.94,4.77,11.72,7.42,2.76,1.94,5.94,2.75,7.77.48,2-2.44,3.36-1.1,5.05-.41.51.21.87.82,1.3,1.25-.6-.07-1.19-.17-1.79-.19a9.17,9.17,0,0,0-1.38.11c.38.44.7,1.16,1.16,1.27A112.25,112.25,0,0,0,757,54.12a15.06,15.06,0,0,1,6.39,2.06c3.39,2.1,7.81,2.35,10.72,5.56.16.18.64.07,1,.1a24.43,24.43,0,0,1,14.82,6.22c1.55,1.35,3.83,1.89,5.84,2.67a43.51,43.51,0,0,0,4.3,1.27c1.59.44,3.45,3.16,4.62-.52,0-.14.63-.21.93-.16,2.57.47,5.31.19,7.38,2.43A73.55,73.55,0,0,0,818.53,78.76Zm63.09,20.07c2,1,4,2.08,6,3.16.13.07.2.25.42.56-.47.11-.92.37-1.23.26-2-.72-4-1.49-5.9-2.34-.32-.14-.43-.76-.63-1.16C880.77,99.13,881.34,98.69,881.62,98.83ZM384.15,34.52c-.72.9-1.4,2-2.37,2.45a3.07,3.07,0,0,1-2.8-.64c-.93-1.11-.34-2.12,1.16-2.45,1.12-.25,2.23-.57,3.26-.84.4.1,1,.16,1,.25A1.93,1.93,0,0,1,384.15,34.52Z"/>
            <path
                    d="M1535.09,295c-4-8.43-9.53-11.72-18.66-10.79-6.47.65-11.47,3.91-13.52,10.19s-1.7,12.51,3.35,17.61a17.81,17.81,0,0,0,28.31-4.51c.43-.85,1-1.64,1.49-2.45v-9A5,5,0,0,1,1535.09,295Zm-9,15.12.11-.11h-.17a.54.54,0,0,1,0,.11,10.93,10.93,0,0,1-14.95.42c-5.38-4.5-6-13.47-1.33-18.8a12.19,12.19,0,0,1,17.39-.57A12.34,12.34,0,0,1,1526.11,310.07Z"/>
            <path
                    d="M1488.49,261.54c-2.56.52-4.53-2.09-4.18-2.88,1.26-2.87-1.51-2.23-2.24-3.21-.93-1.23-1.89-2.88-3.18-3.31-2.63-.89-3.91-2.67-5.22-4.88s-3.19-4.25-6.32-3.85a45,45,0,0,1-5.28.56c-.7,0-1.4-.72-2.11-1.12a9.43,9.43,0,0,1,1.66-1.14,14.75,14.75,0,0,1,2.84-.78,3.52,3.52,0,0,1,1.29.31c-.28-.33-.5-.83-.85-1-3.07-1.21-5.11-3.53-7.12-6s-5.27-3.29-6.17-6.93c-.32-1.33-3.33-3.2-4.61-2.87-3.88,1-5.31-1.67-7.17-3.73-1.7-1.88-1.45-5.57-5.21-5.54-1.32-2.88-3.36-3.8-6.41-2.6-.35.14-1.85-1.34-1.75-1.55.74-1.49,1.12-2.39-1.23-2.16-.67.07-1.48-.57-2.11-1-.35-.26-.46-.85-.68-1.29.45-.13,1-.49,1.32-.36,2.33.87,4.61,1.85,6.92,2.75a3.18,3.18,0,0,0,1.15,0,4.31,4.31,0,0,0-.59-.78,21,21,0,0,0-3.13-2.48c-5.95-3.32-11.94-6.6-18-9.78a16.28,16.28,0,0,0-5.56-2.11c-2.77-.3-5.1-.89-6.63-3.43-.26-.42-1.3-.89-1.52-.73-1.4,1-2.59,1.46-3.78-.26-.83-1.21-2.44-2.26-2.57-3.5-.48-4.71-3.28-5.86-7.39-5.75-1,0-3-.42-3.06-.9-.56-3.11-3.08-2.45-5-3a14.19,14.19,0,0,1-3.74-1.16c-6.25-3.83-12.41-7.79-18.62-11.67-2.14-1.35-3.77-4-7-2.83-.36.13-1.15-.54-1.55-1-3.43-3.95-8.17-5.63-12.86-7.3-3.91-1.4-8-2.36-11.9-3.73-1.48-.51-3.34-1.3-4-2.52-1.26-2.33-3.2-2.7-5.35-3-2-.29-4-1-5.92-.64-2.94.51-2.44-2.41-3.93-3.25-6.61-3.75-13.51-6.19-21.28-5a5.57,5.57,0,0,1-2,.06,10.8,10.8,0,0,1-2-.87c.55-.48,1.08-1,1.68-1.43a8.45,8.45,0,0,1,1.36-.63c-2.39-1-5-3-7.13-2.68-3.24.5-5.42-.49-7.79-2.09a14.72,14.72,0,0,0-3.86-2.07c-8.93-2.66-17.85-5.36-26.86-7.71-3.26-.85-6.6-2.61-10.2-.92a2.24,2.24,0,0,1-1.84-.42c-2.36-1.83-5.07-1.58-7.68-1.22-3.65.51-6.59.12-7.62-4.1a5.21,5.21,0,0,0-1-1.72c-.17-.25-.54-.36-.82-.53-.1.28-.31.58-.28.85a20.41,20.41,0,0,1,.47,2.94c0,.46-1,1.34-1,1.3-1.61-1-3.16-2.18-4.72-3.3.22-.2.43-.55.69-.58,3-.44,1.15-1.69.18-2.06a8.4,8.4,0,0,0-3.5,0c-4.59.35-9.21,2.23-13.7-.6-1.74-1.08-3.38-1.45-5.3.42-1.12,1.08-3.39,1.12-5.18,1.3-1.62.17-1.59,0-1.59-2.43a1.51,1.51,0,0,0-1-1.07,5.49,5.49,0,0,0-2.89.53c-3.54,2.48-7.52,2-11.5,2.23a8.73,8.73,0,0,1-7.45-3c-.49-.54-1.29-1.36-1.77-1.26-3,.64-6.21-.84-9.07,1.7-1.26,1.11-3.8.8-5.77,1-.39,0-.84-.39-1.25-.61a5.48,5.48,0,0,1,1.11-1.27c1.47-.87,3-1.65,4.5-2.46l-4.86-2a1.82,1.82,0,0,1-.45-.2c-1.8-1.26-3.26-1-4.82.62a5.58,5.58,0,0,1-3,1.07c-1.24-2.53-2.41-1.06-3.68-.1-2.53,1.9-4.77,4.54-8.52,3.52l-.09,1.38c2.65-.39,5.3-.9,8-1.08.64,0,1.52.88,2,1.56.61.86.4,1.25-.77,2-3.44,2.26-8.18,2.74-11.23-.09-1.62-1.49,1.25-1,1.48-1.94-2.76-.07-5.48,1-8.31-.24-.93-.43-2.42.36-3.65.6.92.92,1.78,2.13-.32,2.2-1,0-2.19-1.25-3.15-2.09-.19-.16.08-1.25.43-1.53a4.81,4.81,0,0,1,1.85-.5,13.4,13.4,0,0,0-1.63-.41c-3.53-.48-3.42-.44-2.49-3.86.24-.89-.15-2.62-.78-3-1.66-.88-2.09.3-2.16,1.87,0,.33-1.32.88-2,.82s-1.38-.89-1.38-1.38c0-2.2-.77-1.82-1.8-.65-1.94,2.2-3.53,4.78-6.94,5a52.93,52.93,0,0,0-6.27.92c-2.29.45-4.52,1.2-6.82,1.53-2,.28-2.87-1-2.35-3.17a7.16,7.16,0,0,0,0-1.79,5.48,5.48,0,0,0-1.54,1c-1.25,1.76-3.39,2.67-4.64,1.32-1.44-1.55-2.25-.76-3.62-.54-3.06.49-6.18.53-9.26.9-1.13.13-3.5-1.44-2.88,1.72-1.25.07-3.29,2-3.58.06-.48-3.22-2.08-1.84-3.28-1.27s-2,1.76-3,2.52c-.43.3-1.17.16-1.77.22.14-3.63-1.7-1.35-3-1.1-3.26.61-6.55,1-9.34,3.08a2.5,2.5,0,0,1-1.92.25c-5.93-1.78-11.52.49-17.22,1.35-1.95.3-4.61.45-5.6,1.71-2.59,3.31-5.8,2.12-8.9,2.27a14.77,14.77,0,0,0-3.46.44c-5.3,1.57-10.31,4.62-16.2,3.12-7.45,2.22-15.32,3.17-22.11,7.42a10.31,10.31,0,0,1-5,1.85c-3.35,0-6,1.42-8.88,2.81-2.65,1.29-5.45,3.22-8.17,3.21-6.06,0-9.89,3.14-13.57,7.19a27,27,0,0,1-4.57,3.8,2.29,2.29,0,0,1-2.14-.08c-2.69-2.2-3.94-2.21-4.32.79-.31,2.53-1.58,3.3-3.33,4.19-.42.21-1.08.51-1.11.82-.38,3.44-4.15,4.54-5.17,7.54-.14.42-1,.6-1.57.89-.06-.56-.38-1.3-.13-1.65,1.62-2.41-.41-3.47-1.84-4.21-.71-.36-2.4.44-3.23,1.18-4.32,3.87-8.46,7.94-12.75,11.84-3.23,2.94-6.6,5.72-9.93,8.54a2.53,2.53,0,0,1-1.36.56c-4.09.35-5.79,3.53-7.54,6.49-1.23,2.07-2.14,4-5.18,3.65-1.3-.13-2.09,1.3-.49,2.25,1.23.74,1.92,1.33.91,2.64-.85,1.1-1.46,1-2.79.17-2.08-1.23-2.85-.54-3.09,1.86a20.22,20.22,0,0,1-.17,2.47c-.06.3-1,.72-1,.66-2.78-3-3,.51-3.42,1.61-1,2.71-2.24,4.75-5.07,6.15s-5.38,3.84-8,5.94a11.6,11.6,0,0,0-1.79,2.51c.89-.32,2-.41,2.62-1,1.56-1.52,3.4-1.79,5.42-2.09a22.63,22.63,0,0,0,7.12-2c6.17-3.23,12.36-6.48,17-12,.93-1.11,2.43-1.74,3.54-2.72,1.71-1.49,3.21-3.22,5-4.62a14,14,0,0,1,3.76-1.84c.73-.27,2,.09,2.33-.35,2.63-3.22,6.69-3.81,10.12-5,7.68-2.57,12.23-10,20.08-12a1.33,1.33,0,0,0,.7-.68c1.83-4.12,6.26-5.08,9.59-6.09a44.29,44.29,0,0,0,13.21-6.43,26.47,26.47,0,0,1,7.56-3.76c5.4-1.63,11-2.73,16.4-4.23s10.82-3.2,16.23-4.8c1.68-.5,2.88-1.51,1.75-3.22s-.34-1.69,1-2.16c2.48-.89,4.82-2.36,7.2.29.34.39,1.54.12,2.31,0,3.46-.53,6.91-1.13,10.37-1.68a8,8,0,0,1,3-.28c6.37,1.56,11.39-2.49,16.8-4.38a26.75,26.75,0,0,1,6.42-1.57c3.44-.3,6.92-.05,10.37-.27,2-.12,4.26-1.55,5.73-.88,3.38,1.52,4.65-1.17,6-2.64,2.7-3,4.12-4,7.53-3,2.68.71,5.35,1.45,8,2a2.4,2.4,0,0,0,2-.62c1.81-2.11,4-2,6.39-1.46,7.09,1.47,14.22,2.73,21.52,2.21,3.46-.25,6.92-.63,10.4-.77,3.91-.16,7.59-2.4,11.65-1.3a1.26,1.26,0,0,0,.91-.34c1.88-1.53,4-1.22,6.18-1,3.3.37,6.64.45,9.94.8,20.48,2.15,41,3.22,61.37,7,30.27,5.58,60.5,11.19,89.71,21.2,2,.68,3.58,1.07,5.56-.41,1.55-1.16,3.82-1.71,4,1.7a2.3,2.3,0,0,0,1.4,1.58c2.73.82,5.24,3.31,8.43,1.26.31-.2,1.28-.05,1.36.16,1.29,3.18,5.13,2.73,7,5.06,1.55,1.9,3.51,1.81,5.86,1.44a104.38,104.38,0,0,1,11.88-.76c1.3-.06,2.37.28,1.72,2.08a1.66,1.66,0,0,0,.84,1.38c2,.56,4.09,1,6.15,1.38.75.16,2.14.1,2.19.34.62,3.17,4.19,3.29,5.54,5.49,1.59,2.59,4.35,2.06,6.55,3,.47.2,1.37-.6,2.07-.93a19.14,19.14,0,0,0-1.81-.91,14.93,14.93,0,0,0-1.78-.44,11.48,11.48,0,0,1,2-1.24c.38-.14.94.21,1.42.31,2.59.54,4.87,3.31,7.88,1.14.12-.08.94.42,1,.74.69,3.24,3.52,3,5.81,3.66-.61,1.62-1.62,2.72-3.33,1.51a10.32,10.32,0,0,0-9.3-1.32c-.59.16-1.21.26-1.81.39a7.82,7.82,0,0,0,1.47,1.82c1.23.85,2.36,1.42,4,.18.92-.68,3.44-.75,4-.06,1.77,2.05,3.92,1.46,6,1.68a5.14,5.14,0,0,0,1.66-.37l-.7-1.26-1.41-2.58c2.48,1.2,6,1.31,5.63,5.52,0,.57,1.27,1.54,2.11,1.81,3,1,6.08,2.37,9.13,2.38,4.18,0,6.88,2,9.38,4.75,1.43,1.57,2.58,3.39,4.06,4.9a4.12,4.12,0,0,0,2.85,1.39c2.6-.38,4.37.95,6.4,2.11a21.1,21.1,0,0,0,6.87,2.76c4.21.67,6.41,4.19,9.59,6.25a39.27,39.27,0,0,0,3.79,2.67,56.39,56.39,0,0,1,8,5.44c.91.68,1.41,1.92,2.35,2.54,2.33,1.55,4.79,2.91,7.24,4.29.21.12.7-.16,1-.32,2.69-1.37,4.47-.9,6.37,1.57,1.33,1.72,1.67,5,5.29,3.33.36-.17,1.72.76,1.88,1.36.64,2.5,2,1.94,3.78,1.4,2.9-.86,2.89-.72,3.09,2.74a3.41,3.41,0,0,0,1,2c2.17,2.09,4.2,4.48,6.74,6,2,1.18,3.93,1.75,5.1,4.19a4.15,4.15,0,0,0,5,2.09c.81-.3,1.88.1,2.82.17,3.22.25,3.56,4,5.42,5,4.65,2.31,4.5,7.72,8.18,10.63,2.37,1.87,6.45,3.81,9.23,2.08.6-.38.91-1.22,1.35-1.84C1489.83,261.9,1489.1,261.41,1488.49,261.54ZM1121.91,107.8c-.43.19-1.26-.51-1.91-.8.37-.74.64-2,1.13-2.11,1.17-.22,2.45.12,4.45.31A24.73,24.73,0,0,1,1121.91,107.8Z"/>
            <path
                    d="M1215,363.8c-.09-1-.09-2-.09-3q-.12-27.24-.22-54.47a74.72,74.72,0,0,1,.31-7.48c.31-3.3,1.3-4.3,4.49-5.07,1.13-.27,2.27-.49,3.38-.8.24-.07.6-.48.55-.63a1,1,0,0,0-.65-.65,35.14,35.14,0,0,0-4-.28q-11.71,0-23.44,0a29.1,29.1,0,0,0-3.49.14c-.41.05-.78.51-1.17.78.34.28.64.7,1,.83a21.85,21.85,0,0,0,2.43.52c4,.88,5,1.8,5.55,5.89a33.59,33.59,0,0,1,.21,4.49q0,13,0,26c0,8.33.06,16.66,0,25a98.58,98.58,0,0,1-.71,10.44c-.41,3.54-1.64,4.6-5.15,4.88-4.25.34-8.4-.27-12-2.72a40.71,40.71,0,0,1-8-6.66c-8.55-10-16.77-20.27-25.23-30.35-1.59-1.88-1.33-3,.4-4.48a34.67,34.67,0,0,0,5.69-5.6c2.54-3.46,5.31-7,6.87-10.89,5.67-14.22-1.48-27.8-16.19-31.18a52.3,52.3,0,0,0-10.88-1.24c-11.82-.15-23.65-.06-35.47-.06a22.89,22.89,0,0,0-3,.06,6.08,6.08,0,0,0-1.64.72c.59.37,1.15,1,1.79,1.09,9.51,1.53,10,2.07,10.07,11.78v.5c0,20.66,0,41.32,0,62a77,77,0,0,1-.64,10.95c-.66,4.6-1.79,5.45-6.39,6.13a9.56,9.56,0,0,0-2,.31c-.37.15-.88.72-.82,1a1.45,1.45,0,0,0,1,.92,12,12,0,0,0,2.48.15c8.14,0,16.28-.14,24.43-.16,2.33,0,4.66.23,7,.14a8.45,8.45,0,0,0,2.6-1,23.77,23.77,0,0,0-2.32-1.27,5.55,5.55,0,0,0-1.49-.1c-6.6-.6-8-2-8.37-8.6s-.64-13.3-.71-20c-.1-10-.71-8.79,8.75-8.78,4,0,6.41,1.58,8.58,4.71,5.13,7.38,10.66,14.48,15.78,21.87,6.78,9.78,15.9,13.85,27.78,13.34,13-.54,25.94-.18,38.92-.26,1.88,0,4,1,5.51-1.07a41.48,41.48,0,0,0-5.1-1.21C1216.85,369.86,1215.39,368.46,1215,363.8Zm-82.78-36.42a55.34,55.34,0,0,1-6.45-.51c-3.82-.65-4.45-1.36-4.51-5.24-.1-5.65,0-11.3,0-16.95s-.07-11.3,0-16.95c.06-4,.69-4.49,4.7-4.8,11.81-.94,20.21,5.58,22.39,17.21a31.49,31.49,0,0,1-1.19,16.68C1144.93,323,1141.2,327.84,1132.2,327.38Z"/>
            <path
                    d="M590.71,364.14c-1.72-3.22-3.32-6.52-4.76-9.88-8.61-20-17.13-40.08-25.79-60.07-.8-1.85-2.2-4.53-3.65-4.76-2.85-.44-3.17,2.9-4,4.89-7.5,17.24-14.89,34.53-22.32,51.8q-3.76,8.7-7.59,17.38c-2,4.54-5.18,7.24-10.43,6.95-2.48-.14-5,0-7.46-.19-4.16-.37-5.45-1.69-5.77-6-.35-4.64-.65-9.3-.68-14-.09-13.49-.07-27,0-40.49,0-3.49.24-7,.54-10.46.34-4,1.15-4.81,5-5.64a17.84,17.84,0,0,0,2-.36,13.31,13.31,0,0,0,1.71-.9c-.54-.33-1.06-.87-1.63-.93a33.29,33.29,0,0,0-4-.1c-6.31,0-12.62,0-18.93,0-2.34,0-4.67,0-7,.13-.41,0-.8.48-1.2.74.31.3.56.77.92.87.95.29,1.95.39,2.92.61,3.4.79,4.4,1.9,4.81,5.4a31.23,31.23,0,0,1,.12,3.49q0,27,0,54a82.69,82.69,0,0,1-.36,8.48c-.37,3.57-1.46,4.6-4.9,5.2a9,9,0,0,0-1.49.15,20.08,20.08,0,0,0-2.11,1.09,12.35,12.35,0,0,0,2.47,1.17,9.92,9.92,0,0,0,2.48-.1c4.49-.17,9-.5,13.47-.46,14.29.12,28.58.39,42.87.53a8.34,8.34,0,0,0,2.59-.9,14.56,14.56,0,0,0-2.28-1.33,8.49,8.49,0,0,0-2-.17c-2.32-.26-3.14-1.78-2.85-3.86a22,22,0,0,1,1.29-4.79c1.69-4.35,3.63-8.59,5.22-13,.9-2.48,2.45-3.22,4.91-3.13,3.5.14,7,0,10.5,0,3.33,0,6.67.12,10,0,2.69-.13,4.24.74,5.2,3.44,2,5.63,4.44,11.13,6.63,16.7.64,1.63,1.64,3.15-.07,5-1.34,1.46.75,1.5,1.36,1.52q12,.31,24,.4c.71,0,1.43-.64,2.14-1-.79-.42-1.59-1.2-2.38-1.19C595.47,370.53,592.69,367.86,590.71,364.14Zm-29.17-24.32c-2.83,0-5.66,0-8.5,0s-5.66,0-8.49,0c-1.78,0-2.91-.48-2-2.71,3.23-8,6.34-16.09,9.55-24.12.2-.51.91-.82,1.39-1.23a5.72,5.72,0,0,1,.79,1.19c3.12,8.06,6.17,16.15,9.33,24.19C564.49,339.41,563.28,339.79,561.54,339.82Z"/>
            <path
                    d="M781.22,319.55c-2.6-1.64-2.61-1.37-.55-3.74,2.72-3.12,5.9-6.06,7.77-9.66,6.12-11.76,1-23.44-11.67-27.24a46.65,46.65,0,0,0-10.8-1.66c-5.31-.27-10.65-.07-16-.07s-10.66-.1-16,.06c-1.6.05-3.61-1-4.82,1.06,1.56.34,3.11.74,4.68,1,5.39.92,7,2.71,7.29,8.33,0,.33.05.67.05,1,0,23.49,0,47-.12,70.47a36.17,36.17,0,0,1-1,6.91c-.5,2.55-2,4.15-4.76,4.27a17.34,17.34,0,0,0-3.43.52c-.3.08-.57.67-.66,1.07,0,.17.38.65.62.67,1.15.09,2.31.1,3.47.11l23.42.14c4.16,0,8.34.24,12.49,0A34.78,34.78,0,0,0,789.57,367c13.44-9.19,15.44-27.58,3.85-39C789.93,324.61,785.41,322.21,781.22,319.55Zm-25-33.08c.08-3.62.87-4.44,4.41-4.47,4.88-.05,9.19,1.55,12.21,5.54a22.86,22.86,0,0,1,3.87,21.15c-2.22,7.53-11.17,11.57-18.57,8.73-1.85-.71-1.91-2.1-1.92-3.59,0-4.64,0-9.29,0-13.93h0C756.21,295.42,756.14,291,756.23,286.47Zm29,68.49c-.78,5.75-3.94,9.84-9.58,11.59a22.53,22.53,0,0,1-14.19-.37c-2.79-.95-4.57-2.79-4.7-5.78-.26-5.64-.36-11.28-.52-16.92,0-.66,0-1.33,0-2h0c0-5.15,0-10.31,0-15.46,0-2.3.91-3.12,3.26-3.26,9.17-.52,16.11,3.14,21,10.76A30.71,30.71,0,0,1,785.19,355Z"/>
            <path
                    d="M1299.84,294.23c-7.26-2.11-14.74-2.67-22.22-2.78-11.64-.17-23.28,0-34.93,0v.11c-2,0-4,0-6,0-.38,0-.74.54-1.11.84a5.93,5.93,0,0,0,1.16.76,14.37,14.37,0,0,0,2,.41c6.35,1.1,7.4,2.28,7.41,8.91q.06,24.48,0,49a93.54,93.54,0,0,1-.27,9.48c-.27,2.6-.5,5.52-1.85,7.58-.9,1.36-3.77,1.39-5.71,2.14-.45.18-.72.86-1.07,1.31.39.26.77.7,1.18.74,1,.08,2-.07,3-.05,9.63.17,19.29,0,28.9.63a82.19,82.19,0,0,0,22.81-1.45c19.41-4.17,31.31-16.94,33.43-36.65C1328.41,317.75,1320.36,300.17,1299.84,294.23Zm10,52c-2.27,10.12-8.46,16.81-18.31,20a42.69,42.69,0,0,1-23.66.8c-3.94-1-6.44-3.36-6.58-7.68-.12-4-.34-8-.35-12,0-14.33,0-28.66,0-43,0-6.88.49-7.37,7.28-7.53,1,0,2,0,3,0a47.44,47.44,0,0,1,23.45,5.94c8.38,4.74,13.17,12.05,15.35,21.19A48.88,48.88,0,0,1,1309.8,346.27Z"/>
            <path
                    d="M463.26,291.41c-7.14,0-14.29,0-21.43,0a16.46,16.46,0,0,0-3.63.85,21.68,21.68,0,0,0,3.49,1.24c5.36.92,6.43,1.94,7.11,7.24a27.2,27.2,0,0,1,.14,3q.51,20.48,1,41c0,1.93-.2,3.87-.31,5.81a47.73,47.73,0,0,1-5-3.79q-20.4-20.26-40.68-40.62c-4.83-4.83-9.62-9.7-14.53-14.45a13.57,13.57,0,0,0-3.38-1.78c-.6,1.26-1.24,2.5-1.77,3.79a4.6,4.6,0,0,0,0,1.49q-.37,26.71-.78,53.44c-.08,5.17-.07,10.34-.39,15.48-.3,4.66-1.49,5.69-6.06,6.3a16.44,16.44,0,0,0-2.45.36c-.37.12-.63.64-.93,1,.36.3.68.79,1.09.88a12.77,12.77,0,0,0,2.48.18c7.64,0,15.28.06,22.91,0a12.61,12.61,0,0,0,3.5-1.08,18.09,18.09,0,0,0-3.45-1.25c-4.58-.68-5.63-1.53-6.63-6a22,22,0,0,1-.54-3.95q-.54-15.46-1-30.94h-.09c0-3.17-.06-6.33,0-9.5a45.94,45.94,0,0,1,.58-4.64,41.37,41.37,0,0,1,3.81,3c13.38,13.24,26.69,26.55,40.1,39.75,5,4.9,10.14,9.63,15.37,14.27a5.23,5.23,0,0,0,4,1c.61-.12,1.12-2.19,1.16-3.39q.48-12.48.71-25c.24-13.66.3-27.32.62-41,.07-2.76.31-5.89,1.67-8.11,1-1.57,3.95-1.89,6-2.81a4.26,4.26,0,0,0,1-.85c-.39-.26-.75-.67-1.17-.74A14.7,14.7,0,0,0,463.26,291.41Z"/>
            <path
                    d="M238.84,370.51c-6.55-.38-11.14-4.29-15.15-8.79-7.08-8-13.89-16.16-20.74-24.32-2.27-2.69-2-2.66.31-5.16,3.41-3.61,7.23-7,9.79-11.22,6.87-11.2,1.66-24.2-11-27.74a54.49,54.49,0,0,0-13.29-1.79c-10.47-.25-21-.09-31.43-.08a28.85,28.85,0,0,0-3.48.15c-.41.06-.77.53-1.15.82a4.94,4.94,0,0,0,1.1.74,12.66,12.66,0,0,0,1.94.43c6.7,1.16,7.44,2,7.46,8.71,0,9.66,0,19.32,0,29h-.11c0,10.33.14,20.65,0,31-.12,6.27-.93,7-6.77,8.24-.16,0-.38,0-.48.1-.42.4-.82.83-1.22,1.24.37.3.71.77,1.11.84a14.66,14.66,0,0,0,2.48.08c8.81,0,17.62.1,26.42,0,1.32,0,2.64-.75,4-1.15a17.91,17.91,0,0,0-3.57-1.16c-5.73-.65-6.76-1.65-7.11-7.46-.27-4.48-.52-9-.68-13.45-.09-2.66,0-5.33.06-8a2.33,2.33,0,0,1,2.44-2.56c5.75-.25,11.38-.48,14.39,6.06a31.39,31.39,0,0,0,4.26,6.14c4.14,5.21,8.12,10.57,12.68,15.39,2.18,2.31,5.36,4.53,8.37,5,6.36,1,12.9.9,19.38,1.16.53,0,1.09-.55,1.64-.85C239.91,371.4,239.4,370.54,238.84,370.51Zm-50-36.62c-2.65,0-5.29-.38-7.93-.56s-3.69-1.8-3.67-4.34c0-4.66,0-9.32,0-14s-.09-9.33,0-14c.08-3.48.61-3.9,4.15-4.16,7.64-.53,14.53,1.05,18.27,8.43,3.94,7.8,3.73,15.76-1.24,23.21A11.24,11.24,0,0,1,188.81,333.89Z"/>
            <path
                    d="M308.6,332.83c-6,0-12-.33-18-.37a13.46,13.46,0,0,0-3.55,1,22.23,22.23,0,0,0,3.54,1.17c5.26.8,6.4,1.93,6.66,7.43.15,3.15,0,6.32,0,9.48h.13c0,3.5.07,7,0,10.49-.11,4.19-1.39,5.62-5.63,6.05a43.45,43.45,0,0,1-7.48.08c-15.27-1.1-26.39-8.28-32.55-22.54-3.77-8.71-4.05-17.89-2.4-27,2.12-11.69,9.09-19.59,20.92-22.13a42.93,42.93,0,0,1,26.43,2.27c5.91,2.53,10.73,6.06,11.69,13.09.09.61.94,1.13,1.43,1.69.36-.67,1-1.32,1-2,.29-5,.27-10,.74-14.94.25-2.59-.45-3.45-3-3.86-11.36-1.86-22.74-3.26-34.27-2.57a48.63,48.63,0,0,0-21,5.77c-15.46,8.6-22,22.18-21,39.43.95,16.37,9.49,27.64,24.61,33.89,12.19,5.05,24.94,5.48,37.8,4.13a74.92,74.92,0,0,0,13.12-2.86c4.2-1.24,4.28-1.62,4.31-6.07.05-7.16,0-14.32,0-21.48.08-6.18.59-6.72,6.7-8.44a6.71,6.71,0,0,0,1.61-1c-.65-.36-1.31-1-2-1C315.24,332.52,311.92,332.86,308.6,332.83Z"/>
            <path
                    d="M1421.49,332.59a17.41,17.41,0,0,0-3-.17c-8.48,0-17-.06-25.44,0a15.73,15.73,0,0,0-3.92,1.05,24.87,24.87,0,0,0,3.63,1.11c5.17.78,6.47,2.13,6.65,7.49.11,3.16,0,6.33,0,9.49h0c0,3.5.07,7,0,10.5-.09,4-1.31,5.48-5.21,5.91a43.79,43.79,0,0,1-8.49.11c-13.37-1.1-23.83-7-30.25-19.09-5.78-10.83-6.34-22.39-3.15-34,2.85-10.37,10.19-16.88,20.7-18.68a52.45,52.45,0,0,1,17.85.11c9.22,1.68,17.91,4.93,19.79,16.09.07.38.66.67,1,1,.42-.61,1.16-1.21,1.2-1.85.36-5.48.54-11,.88-16.45.14-2.28-1.42-2.2-2.9-2.46-11.34-2-22.73-3.32-34.28-2.65a49.23,49.23,0,0,0-20.16,5.21c-15.67,8.19-22.74,21.57-22.09,38.88.61,16.53,8.77,28.25,24.14,34.77,12.33,5.22,25.23,5.72,38.27,4.36a75.46,75.46,0,0,0,13.14-2.83c4.16-1.22,4.27-1.65,4.29-6.08,0-7.17-.06-14.34.06-21.5.1-6.14.66-6.7,6.74-8.42.16-.05.36,0,.48-.12.38-.3.74-.63,1.1-.95C1422.21,333.17,1421.89,332.66,1421.49,332.59Z"/>
            <path
                    d="M107.11,277.23c-7.49-.08-15-.11-22.48,0a26.5,26.5,0,0,0-4.95,1c1.52.39,3,.8,4.57,1.16,3.56.84,4.18,1.73,3.24,5.23a51.74,51.74,0,0,1-1.94,5.66q-10.39,26.22-20.83,52.43c-.74,1.85-1.48,3.71-2.27,5.54a6.34,6.34,0,0,1-.88,1.16c-.33-.36-.79-.67-1-1.1q-2.13-5.33-4.16-10.69c-6.36-16.81-12.75-33.6-19-50.44-1.77-4.75-1.58-7.83,4.68-8.12a1.84,1.84,0,0,0,1-.17,2.38,2.38,0,0,0,.72-1c0-.11-.41-.56-.66-.58a27.09,27.09,0,0,0-3-.15c-5.16,0-10.33,0-15.49,0H9.18a24.76,24.76,0,0,0-3,.1c-.38.05-.7.53-1.05.81.32.31.59.8,1,.88,1.13.25,2.3.33,3.45.51a11.93,11.93,0,0,1,9.89,7.43c.59,1.38,1.26,2.72,1.83,4.1q16.09,39,32.23,78c.84,2,1.19,5.33,4,5,1.43-.18,2.88-2.91,3.71-4.76,6-13.36,11.79-26.8,17.7-40.2q9.06-20.57,18.22-41.07c2-4.55,4.68-8.54,10.43-8.82a6.44,6.44,0,0,0,2-.94A7.66,7.66,0,0,0,107.11,277.23Z"/>
            <path
                    d="M956,291.41q-10,0-19.94,0a29,29,0,0,0-3.49.16c-.37.05-.67.6-1,.92a3.22,3.22,0,0,0,.8.56,24.3,24.3,0,0,0,2.42.56c5.5,1.05,6.34,1.79,6.48,7.54.19,7.49.05,15,.05,22.49h-.13c0,8,.2,16-.08,24-.18,5.23-1.7,10.19-5.57,14.07-6.42,6.44-14.2,7.68-22.62,5.43-7.8-2.08-12.36-7.48-14.14-15.27a30.51,30.51,0,0,1-.9-5.9c-.29-11.32-.56-22.64-.66-34,0-4.32.25-8.65.6-13,.3-3.7,1.21-4.47,4.75-5.35a25.83,25.83,0,0,0,3.67-1.52,26.37,26.37,0,0,0-4.26-.73c-8.65-.07-17.3,0-25.94,0a25,25,0,0,0-3,.11,4.15,4.15,0,0,0-1.24.66c.42.35.79.87,1.27,1,1.12.29,2.3.36,3.44.57,4,.74,5.34,2.23,5.65,6.36.1,1.33.06,2.67.06,4,0,11.17-.09,22.33,0,33.5A72.53,72.53,0,0,0,883.35,350c2.14,11.45,8.57,19.3,20.09,22.44a52.94,52.94,0,0,0,21.83,1c13.89-2.08,22.84-10.67,25.37-23.95a72.75,72.75,0,0,0,1.19-12.41c.19-11.5.1-23,.17-34.5,0-6.88.43-7.33,6.92-9.25a7.46,7.46,0,0,0,1.65-1,10.1,10.1,0,0,0-2.06-1A12.15,12.15,0,0,0,956,291.41Z"/>
            <path
                    d="M1026.18,358.57c-1,5.21-4.36,7.8-9.41,8a86.85,86.85,0,0,1-13.88-.34c-5.11-.63-6.87-2.75-7-8-.25-7.65-.1-15.31-.18-23,0-2.28.85-3.42,3.23-3.32,4.48.2,9,.12,13.45.55,6.47.62,6.44.77,8.19,7.13.14.5.73.88,1.12,1.32.28-.39.76-.76.81-1.18.5-4.79,1-9.59,1.37-14.39.18-2.2-.8-2-2.35-1.1a10.76,10.76,0,0,1-4.55,1.74c-6,.3-12,.25-18,.41-2.29.06-3.33-.83-3.31-3.2.05-7.49.06-15,0-22.47,0-2.4,1.05-3.22,3.33-3.15,4.65.15,9.31.11,14,.29,6.31.24,7.51,1.27,9.32,7.46a7.66,7.66,0,0,0,.63,1.2c.39-.42,1.07-.81,1.13-1.27.43-3.63.72-7.27,1.11-10.91s.42-3.26-3.08-3.2c-13.29.22-26.59.25-39.88.35-3.66,0-7.31,0-11,.09-.33,0-.64.6-1,.92a3.36,3.36,0,0,0,.79.54,14.07,14.07,0,0,0,1.94.47c7.1,1.2,7.87,2,7.93,9.37.13,15,.24,30,.18,44.94,0,5.81-.4,11.64-.9,17.43-.32,3.65-1.38,4.47-4.94,5.1a16.26,16.26,0,0,0-2.43.44c-.3.1-.53.7-.59,1.11,0,.19.38.63.63.65a21,21,0,0,0,3,.11c5.65-.15,11.3-.51,16.95-.46,5.48,0,11,.5,16.44.78v-.11c4.49,0,9,0,13.48,0,2.6,0,4.06-1.1,4.33-3.73.36-3.46.8-6.92,1.08-10.4.05-.66-.49-1.37-.76-2.06C1027,357.33,1026.31,357.9,1026.18,358.57Z"/>
            <path
                    d="M1483.69,358.38c-1,5.77-4.86,8.16-10.23,8.33a79.53,79.53,0,0,1-12.92-.43c-5.09-.66-7.07-2.72-7.28-7.93-.31-7.81,0-15.65,0-23.48,0-2.07,1-3,3.12-2.93,4.65.2,9.33.16,14,.61,6.07.58,6.4,1.06,7.87,7,.12.5.66.89,1,1.33a6.09,6.09,0,0,0,.74-1.66c.43-4.14.83-8.29,1.17-12.43.27-3.3.25-3.25-3-1.77a10.77,10.77,0,0,1-3.81,1c-5.83.2-11.66.19-17.49.37-2.54.08-3.61-.92-3.59-3.49q.12-11,0-22c0-2.72,1.3-3.44,3.73-3.35,4.33.15,8.66.13,13,.26,6.56.2,7.62,1,10,7.39a9.08,9.08,0,0,0,.72,1.24c.38-.49,1-1,1.1-1.49.45-3.8.68-7.63,1.17-11.42.32-2.46-.74-2.52-2.81-2.49-13.8.23-27.6.27-41.41.37-3.33,0-6.66.05-10,.16-.34,0-.66.61-1,.94a3.65,3.65,0,0,0,.84.5c.8.21,1.62.39,2.44.52,6.14,1,7.15,1.93,7.2,7.91q.22,24.73.22,49.48c0,4.16-.08,8.34-.37,12.49-.37,5.24-1.15,6-6.44,7a3,3,0,0,0-1,.18,9.71,9.71,0,0,0-1.1.95c.48.39.92,1,1.44,1.1a17.5,17.5,0,0,0,3,0c5.49-.16,11-.47,16.47-.41,5.32.06,10.63.5,14.2.68,6.26,0,10.76-.07,15.25,0,2.55.05,4.27-.88,4.66-3.44.54-3.62.94-7.25,1.27-10.89.06-.66-.53-1.38-.82-2.07C1484.55,357.15,1483.81,357.71,1483.69,358.38Z"/>
            <path
                    d="M650.73,330.5c-4.09-3.09-8.7-5.51-13-8.32-2.92-1.9-6-3.64-8.55-6-6.4-6-4.84-14.64,3.09-18.38,10-4.7,23-.35,24,10.49,0,.44.74.81,1.14,1.21.22-.4.61-.78.64-1.19.27-4.32.43-8.64.72-12.95.15-2.22-1.13-2.95-3-3.19l-12.87-1.59c-5.75.18-11.31.85-16.56,3.33-14.46,6.82-17.59,23.4-6.09,34.57,4.12,4,9.34,6.87,14.07,10.24,3.37,2.4,7.18,4.38,10.07,7.27,7.56,7.57,4.28,19.56-5.94,22.75-11.56,3.61-22-2.5-24.45-14.34a10.53,10.53,0,0,0-.91-2c-.5.74-1.39,1.45-1.44,2.22q-.42,6.24-.47,12.48c0,4.36.16,4.73,4.43,5.9a52.16,52.16,0,0,0,28.12.33,23.62,23.62,0,0,0,17.17-23.62C660.71,341.57,657,335.24,650.73,330.5Z"/>
            <path
                    d="M870.14,357.69c-1.85,7.54-6.44,8.67-12.11,8.7-3.5,0-7,.06-10.49-.13-8.43-.47-10.14-2.24-10.53-10.53,0-.33,0-.66,0-1,0-17.32,0-34.64,0-52,0-7.5.38-7.76,7.82-9.34a10.74,10.74,0,0,0,2.15-1,8.15,8.15,0,0,0-2.06-1,25.37,25.37,0,0,0-3.49,0H820c-1.66,0-3.34-.09-5,0a13.89,13.89,0,0,0-2.7.74,13.67,13.67,0,0,0,2.29,1.29,19.42,19.42,0,0,0,2.46.38,5.72,5.72,0,0,1,5,5.44,34,34,0,0,1,.1,3.5q0,27,0,54a51.9,51.9,0,0,1-.33,6.48c-.71,5.8-1,6-6.75,7.23a2.29,2.29,0,0,0-.94.25c-.35.28-.85.75-.79,1a1.44,1.44,0,0,0,1,.9,18.51,18.51,0,0,0,3,0c6.15-.16,12.3-.48,18.45-.44,5.32,0,10.63.48,16,.75v-.14c4.83,0,9.65,0,14.48,0,2.54,0,4.25-1.09,4.63-3.59.57-3.78.92-7.59,1.28-11.4a5.2,5.2,0,0,0-.58-1.79C871,356.61,870.29,357.08,870.14,357.69Z"/>
            <path
                    d="M139.7,370.41c-5.22-.57-6.49-1.84-6.8-7.26,0-.33,0-.66,0-1-.07-14.48-.18-29-.21-43.42,0-6.15,0-12.31.22-18.45.19-5,.86-5.56,5.58-6.68a17.51,17.51,0,0,0,3-1.28,19.07,19.07,0,0,0-3.16-.88,33.18,33.18,0,0,0-4,0H116.38c-1.67,0-3.34-.1-5,0a12.25,12.25,0,0,0-2.68.85,11,11,0,0,0,2.42,1.23c5.47,1.32,6.25,2.06,6.69,7.54.22,2.65.13,5.32.1,8-.19,18.13-.31,36.25-.65,54.37-.11,5.72-.62,6-6.18,7a5.24,5.24,0,0,0-1.44.35,4.65,4.65,0,0,0-.94.94c.37.31.7.79,1.11.88a12,12,0,0,0,2.47.14h23.4v-.22a28,28,0,0,0,4,.17,44.46,44.46,0,0,0,4.67-.85C143.37,369.56,141.29,370.58,139.7,370.41Z"/>
            <path
                    d="M359.44,370.36c-4.12-.65-5.17-1.32-5.77-5.51a67.51,67.51,0,0,1-.65-9.43c-.06-16.64,0-33.27,0-49.91,0-1.5,0-3,.12-4.49.45-5.6,1-6.17,6.62-7.49a9.81,9.81,0,0,0,1.43-.42,3.85,3.85,0,0,0,.78-.58c-.3-.33-.55-.91-.88-1a26.94,26.94,0,0,0-3.48-.16q-12,0-23.9,0a12.12,12.12,0,0,0-2.49,0,9.57,9.57,0,0,0-2.05,1,8.49,8.49,0,0,0,1.66.92c.79.24,1.65.23,2.45.43,3.18.77,4.44,2.15,4.86,5.47a33,33,0,0,1,.13,4q0,25.95,0,51.91c0,2.66,0,5.33-.21,8-.43,5.58-1,6.12-6.6,7.33a2.55,2.55,0,0,0-.95.23c-.37.27-.89.69-.88,1a1.37,1.37,0,0,0,.94.94,12,12,0,0,0,2.48.1H356.9v-.1a19,19,0,0,0,2,0c1.87-.21,3.74-.47,5.62-.71C363.5,369.27,361.15,370.64,359.44,370.36Z"/>
            <path
                    d="M591.07,278.24c-4.94.67-8.11,5.15-6.71,9.74,1.14,3.73,4.15,4.83,7.74,5.13,4.38.37,5,1.28,2.85,5.15a27.88,27.88,0,0,1-4.68,5.75,18.54,18.54,0,0,1-3.67,2.57c-1.11.69-1.77,1.38-1,2.8s1.84,1.05,2.89.48c5.26-2.82,9.62-6.64,12.29-12A43,43,0,0,0,603,291a51.66,51.66,0,0,0-1.49-6.68A9.59,9.59,0,0,0,591.07,278.24Z"/>
            <path
                    d="M684.7,35.38a27.32,27.32,0,0,0-7.27-1c-2,.06-4,1-6,1.55-.31.09-.6.23-.91.35.15.24.25.62.46.7a19.71,19.71,0,0,0,4.65,1.64c.88.12,1.84-1,2.85-1.25,1.84-.41,4.28-1.37,5.49-.59a7.6,7.6,0,0,0,5.12,1.05c1.75-.12,3.5-.37,5.25-.56-1.6-1.06-3.21-2.12-4.82-3.16-.1-.07-.25,0-.39,0C688.22,36.31,686.6,35.86,684.7,35.38Z"/>
            <path
                    d="M909.32,108.72c-.09-.55-.07-.82-.15-.85-1.42-.6-2.83-1.19-4.28-1.69a3.62,3.62,0,0,0-.62,1.14,20,20,0,0,0,3.47,2.36C908.06,109.84,908.86,109,909.32,108.72Z"/>
            <path
                    d="M1094.35,100.13a24.09,24.09,0,0,0,3.63-2l-3-1.79c-.78.74-1.75,1.28-2,2.06C1092.78,98.78,1094.09,100.23,1094.35,100.13Z"/>
            <path
                    d="M1492.86,265.61a8.72,8.72,0,0,0,2.11,2c.15.1.88-.68,1.6-1.27l-2.82-2.08C1493.44,264.72,1492.75,265.46,1492.86,265.61Z"/>
            <path
                    d="M1155,101.81c-.86-.31-1.54-.7-1.64-.58-.78.91-1.46,1.93-2.17,2.91.24.11.59.38.68.31C1152.88,103.67,1153.81,102.85,1155,101.81Z"/>
            <path
                    d="M1524.36,300.74c2.31-1.23,1.94-3.64,1.56-5.78s-2.13-3-4-3.17a49.76,49.76,0,0,0-7.91-.22,2.6,2.6,0,0,0-1.75,1.84q-.22,7.2,0,14.41c0,.57,1.26,1.11,1.93,1.66.55-.67,1.37-1.27,1.57-2A26.23,26.23,0,0,0,1516,304a6.07,6.07,0,0,1,.75-1.65,9.46,9.46,0,0,1,1.92,1.17,4.43,4.43,0,0,1,.93,1.74c1.08,3.12,3.2,4.74,6.5,4.71-.79-1.59-1.53-3.21-2.38-4.76S1521.87,302.07,1524.36,300.74Zm-5.62-1.7c-1.71.09-3.13-.4-2.7-2.39.2-.93,1.32-1.66,2.36-2.87,1.6,1.13,3.41,1.75,3.58,2.66C1522.39,298.62,1520.49,298.94,1518.74,299Z"/>
        </g>
    </g>
</svg>
