<?xml version="1.0" encoding="utf-8"?>
<!-- Generator: Adobe Illustrator 18.1.1, SVG Export Plug-In . SVG Version: 6.00 Build 0)  -->
<svg version="1.1" id="Layer_1" xmlns="http://www.w3.org/2000/svg" xmlns:xlink="http://www.w3.org/1999/xlink" x="0px" y="0px"
	 viewBox="0 0 20 20" enable-background="new 0 0 20 20" xml:space="preserve">
<path fill="#004165" d="M19.7,18L13,11.3c1-1.3,1.5-2.7,1.5-4.3c0-2.3-0.9-4.1-2.7-5.5c-1.4-1.1-2.9-1.6-4.6-1.6
	C5-0.1,3.1,0.7,1.6,2.5C0.6,3.8,0,5.3,0,7c0,2.3,0.9,4.1,2.7,5.6c1.3,1.1,2.9,1.6,4.6,1.6c1.6,0,3.1-0.5,4.4-1.5l6.7,6.8
	c0.2,0.2,0.4,0.5,0.7,0.5h0.1l0.1-0.2c0.2,0,0.4-0.2,0.5-0.3l0.1-0.1l0.1-0.1C20.1,18.9,20.1,18.3,19.7,18z M10.5,11.1
	c-1,0.7-2,1.1-3.2,1.1c-1.7,0-3.1-0.7-4.2-2C2.3,9.3,1.9,8.2,1.9,7c0-1.7,0.7-3,2-4.1c1-0.8,2-1.1,3.3-1.1c1.8,0,3.1,0.7,4.2,2
	c0.7,1,1.1,2,1.1,3.2C12.5,8.7,11.9,10.1,10.5,11.1z"/>
</svg>
