<?xml version="1.0" encoding="utf-8"?>
<!-- Generator: Adobe Illustrator 18.1.1, SVG Export Plug-In . SVG Version: 6.00 Build 0)  -->
<svg version="1.1" id="Layer_1" xmlns="http://www.w3.org/2000/svg" xmlns:xlink="http://www.w3.org/1999/xlink" x="0px" y="0px"
	 viewBox="0 0 30 30" enable-background="new 0 0 30 30" xml:space="preserve">
<g>
	<path opacity="0.2" d="M22.1,4.8H7.9c-1.2,0-2.2,1-2.2,2.2v14c0,1.2,1,2.2,2.2,2.2h14.2c1.2,0,2.2-1,2.2-2.2V7
		C24.3,5.8,23.3,4.8,22.1,4.8z M18.6,7.4c0-0.3,0.2-0.5,0.5-0.5h2.5c0.3,0,0.5,0.2,0.5,0.5v2.5c0,0.3-0.2,0.5-0.5,0.5h-2.5
		c-0.3,0-0.5-0.2-0.5-0.5V7.4z M15,10.5c2,0,3.6,1.6,3.6,3.5c0,1.9-1.6,3.5-3.6,3.5c-2,0-3.6-1.6-3.6-3.5C11.4,12.1,13,10.5,15,10.5
		z M22.2,20.5c0,0.3-0.2,0.5-0.5,0.5H8.3c-0.3,0-0.5-0.2-0.5-0.5v-8h1.7c-0.1,0.5-0.2,1-0.2,1.5c0,3.1,2.5,5.6,5.7,5.6
		c3.1,0,5.7-2.5,5.7-5.6c0-0.5-0.1-1-0.2-1.5h1.7V20.5z"/>
	<path fill="#FFFFFF" d="M22.1,6.8H7.9c-1.2,0-2.2,1-2.2,2.2v14c0,1.2,1,2.2,2.2,2.2h14.2c1.2,0,2.2-1,2.2-2.2V9
		C24.3,7.8,23.3,6.8,22.1,6.8z M18.6,9.4c0-0.3,0.2-0.5,0.5-0.5h2.5c0.3,0,0.5,0.2,0.5,0.5v2.5c0,0.3-0.2,0.5-0.5,0.5h-2.5
		c-0.3,0-0.5-0.2-0.5-0.5V9.4z M15,12.5c2,0,3.6,1.6,3.6,3.5c0,1.9-1.6,3.5-3.6,3.5c-2,0-3.6-1.6-3.6-3.5C11.4,14.1,13,12.5,15,12.5
		z M22.2,22.5c0,0.3-0.2,0.5-0.5,0.5H8.3c-0.3,0-0.5-0.2-0.5-0.5v-8h1.7c-0.1,0.5-0.2,1-0.2,1.5c0,3.1,2.5,5.6,5.7,5.6
		c3.1,0,5.7-2.5,5.7-5.6c0-0.5-0.1-1-0.2-1.5h1.7V22.5z"/>
</g>
</svg>
