<?xml version="1.0" encoding="utf-8"?>
<!-- Generator: Adobe Illustrator 18.1.1, SVG Export Plug-In . SVG Version: 6.00 Build 0)  -->
<svg version="1.1" id="Layer_1" xmlns="http://www.w3.org/2000/svg" xmlns:xlink="http://www.w3.org/1999/xlink" x="0px" y="0px"
	 viewBox="0 0 30 30" enable-background="new 0 0 30 30" xml:space="preserve">
<g>
	<path opacity="0.2" d="M21.4,14c-0.6,0-1.1,0.5-1.1,1.1c0,0.6,0.5,1.1,1.1,1.1c0.6,0,1.1-0.5,1.1-1.1C22.5,14.5,22,14,21.4,14z
		 M8.5,14c-0.6,0-1.1,0.5-1.1,1.1c0,0.6,0.5,1.1,1.1,1.1c0.6,0,1.1-0.5,1.1-1.1C9.6,14.5,9.1,14,8.5,14z M26.6,11.4
		c0.3-1.3,1.3-2.5,1.3-2.5l-4.3,0c-2.4-1.5-5.3-2.3-8.6-2.3c-3.4,0-6.4,0.8-8.8,2.4l-4,0c0,0,1,1.3,1.3,2.5
		c-0.8,1.1-1.3,2.3-1.3,3.7c0,3.5,2.9,6.3,6.4,6.3c2,0,3.8-0.9,5-2.4l1.4,2l1.4-2c0.6,0.8,1.4,1.4,2.4,1.8c1.6,0.7,3.3,0.8,4.9,0.2
		c3.3-1.2,5-4.9,3.8-8.1C27.3,12.4,27,11.9,26.6,11.4z M8.6,20.2c-2.8,0-5.1-2.3-5.1-5.1c0-2.8,2.3-5.1,5.1-5.1
		c2.8,0,5.1,2.3,5.1,5.1C13.7,17.9,11.4,20.2,8.6,20.2z M15,14.7c-0.2-3.2-3-5.8-6.3-5.9c1.8-0.8,4-1.2,6.3-1.2
		c2.3,0,4.4,0.4,6.2,1.2c-0.7,0-1.4,0.1-2,0.4c-1.6,0.6-2.9,1.8-3.6,3.3C15.2,13.2,15.1,13.9,15,14.7z M23.2,19.9
		c-1.3,0.5-2.7,0.4-3.9-0.2c-1.2-0.6-2.2-1.6-2.7-2.8v0c-0.5-1.3-0.4-2.6,0.2-3.9c0.6-1.2,1.6-2.2,2.9-2.6c2.7-1,5.6,0.4,6.6,3
		C27.2,16,25.9,18.9,23.2,19.9z M21.4,11.9c-1.8,0-3.2,1.4-3.2,3.1c0,1.7,1.4,3.1,3.2,3.1c1.8,0,3.2-1.4,3.2-3.1
		C24.6,13.4,23.2,11.9,21.4,11.9z M21.4,17.1c-1.2,0-2.1-0.9-2.1-2.1c0-1.1,0.9-2.1,2.1-2.1c1.2,0,2.1,0.9,2.1,2.1
		C23.5,16.2,22.6,17.1,21.4,17.1z M8.5,11.9c-1.8,0-3.2,1.4-3.2,3.1c0,1.7,1.4,3.1,3.2,3.1c1.8,0,3.2-1.4,3.2-3.1
		C11.7,13.4,10.3,11.9,8.5,11.9z M8.5,17.1c-1.2,0-2.1-0.9-2.1-2.1c0-1.1,0.9-2.1,2.1-2.1c1.1,0,2.1,0.9,2.1,2.1
		C10.6,16.2,9.6,17.1,8.5,17.1z"/>
	<path fill="#FFFFFF" d="M21.4,16c-0.6,0-1.1,0.5-1.1,1.1c0,0.6,0.5,1.1,1.1,1.1c0.6,0,1.1-0.5,1.1-1.1C22.5,16.5,22,16,21.4,16z
		 M8.5,16c-0.6,0-1.1,0.5-1.1,1.1c0,0.6,0.5,1.1,1.1,1.1c0.6,0,1.1-0.5,1.1-1.1C9.6,16.5,9.1,16,8.5,16z M26.6,13.4
		c0.3-1.3,1.3-2.5,1.3-2.5l-4.3,0c-2.4-1.5-5.3-2.3-8.6-2.3c-3.4,0-6.4,0.8-8.8,2.4l-4,0c0,0,1,1.3,1.3,2.5
		c-0.8,1.1-1.3,2.3-1.3,3.7c0,3.5,2.9,6.3,6.4,6.3c2,0,3.8-0.9,5-2.4l1.4,2l1.4-2c0.6,0.8,1.4,1.4,2.4,1.8c1.6,0.7,3.3,0.8,4.9,0.2
		c3.3-1.2,5-4.9,3.8-8.1C27.3,14.4,27,13.9,26.6,13.4z M8.6,22.2c-2.8,0-5.1-2.3-5.1-5.1c0-2.8,2.3-5.1,5.1-5.1
		c2.8,0,5.1,2.3,5.1,5.1C13.7,19.9,11.4,22.2,8.6,22.2z M15,16.7c-0.2-3.2-3-5.8-6.3-5.9c1.8-0.8,4-1.2,6.3-1.2
		c2.3,0,4.4,0.4,6.2,1.2c-0.7,0-1.4,0.1-2,0.4c-1.6,0.6-2.9,1.8-3.6,3.3C15.2,15.2,15.1,15.9,15,16.7z M23.2,21.9
		c-1.3,0.5-2.7,0.4-3.9-0.2c-1.2-0.6-2.2-1.6-2.7-2.8v0c-0.5-1.3-0.4-2.6,0.2-3.9c0.6-1.2,1.6-2.2,2.9-2.6c2.7-1,5.6,0.4,6.6,3
		C27.2,18,25.9,20.9,23.2,21.9z M21.4,13.9c-1.8,0-3.2,1.4-3.2,3.1c0,1.7,1.4,3.1,3.2,3.1c1.8,0,3.2-1.4,3.2-3.1
		C24.6,15.4,23.2,13.9,21.4,13.9z M21.4,19.1c-1.2,0-2.1-0.9-2.1-2.1c0-1.1,0.9-2.1,2.1-2.1c1.2,0,2.1,0.9,2.1,2.1
		C23.5,18.2,22.6,19.1,21.4,19.1z M8.5,13.9c-1.8,0-3.2,1.4-3.2,3.1c0,1.7,1.4,3.1,3.2,3.1c1.8,0,3.2-1.4,3.2-3.1
		C11.7,15.4,10.3,13.9,8.5,13.9z M8.5,19.1c-1.2,0-2.1-0.9-2.1-2.1c0-1.1,0.9-2.1,2.1-2.1c1.1,0,2.1,0.9,2.1,2.1
		C10.6,18.2,9.6,19.1,8.5,19.1z"/>
</g>
</svg>
