<?xml version="1.0" encoding="utf-8"?>
<!-- Generator: Adobe Illustrator 19.1.0, SVG Export Plug-In . SVG Version: 6.00 Build 0)  -->
<svg version="1.1" id="Layer_1" xmlns="http://www.w3.org/2000/svg" xmlns:xlink="http://www.w3.org/1999/xlink" x="0px" y="0px"
	 viewBox="-290 382 30 30" style="enable-background:new -290 382 30 30;" xml:space="preserve">
<style type="text/css">
	.st0{opacity:0.2;enable-background:new    ;}
</style>
<path class="st0" d="M-266.2,389.8c-0.7,0.4-1.6,0.7-2.4,0.9c-0.7-0.7-1.7-1.2-2.8-1.2c-2.1,0-3.8,1.7-3.8,3.8c0,0.3,0,0.6,0.1,0.9
	c-3.2-0.2-6-1.7-7.9-4c-0.4,0.6-0.5,1.2-0.5,1.9c0,1.3,0.7,2.5,1.7,3.1c-0.6,0-1.2-0.2-1.7-0.5l0,0c0,1.8,1.3,3.3,3.1,3.7
	c-0.3,0.1-0.7,0.1-1,0.1c-0.2,0-0.5,0-0.7-0.1c0.5,1.5,1.9,2.6,3.6,2.6c-1.3,1-3,1.6-4.8,1.6c-0.3,0-0.6,0-0.9-0.1
	c1.7,1.1,3.7,1.7,5.9,1.7c7,0,10.9-5.7,10.9-10.7c0-0.2,0-0.3,0-0.5c0.7-0.5,1.4-1.2,1.9-1.9c-0.7,0.3-1.4,0.5-2.2,0.6
	C-267.1,391.4-266.5,390.7-266.2,389.8z"/>
</svg>
