<?xml version="1.0" encoding="utf-8"?>
<!-- Generator: Adobe Illustrator 18.1.1, SVG Export Plug-In . SVG Version: 6.00 Build 0)  -->
<svg version="1.1" id="Layer_1" xmlns="http://www.w3.org/2000/svg" xmlns:xlink="http://www.w3.org/1999/xlink" x="0px" y="0px"
	 viewBox="0 0 30 30" enable-background="new 0 0 30 30" xml:space="preserve">
<g>
	<path opacity="0.2" d="M23.8,6.8c-0.7,0.4-1.6,0.7-2.4,0.9c-0.7-0.7-1.7-1.2-2.8-1.2c-2.1,0-3.8,1.7-3.8,3.8c0,0.3,0,0.6,0.1,0.9
		C11.7,11,8.9,9.5,7,7.2C6.6,7.8,6.5,8.4,6.5,9.1c0,1.3,0.7,2.5,1.7,3.1c-0.6,0-1.2-0.2-1.7-0.5v0c0,1.8,1.3,3.3,3.1,3.7
		c-0.3,0.1-0.7,0.1-1,0.1c-0.2,0-0.5,0-0.7-0.1c0.5,1.5,1.9,2.6,3.6,2.6c-1.3,1-3,1.6-4.8,1.6c-0.3,0-0.6,0-0.9-0.1
		c1.7,1.1,3.7,1.7,5.9,1.7c7,0,10.9-5.7,10.9-10.7c0-0.2,0-0.3,0-0.5c0.7-0.5,1.4-1.2,1.9-1.9c-0.7,0.3-1.4,0.5-2.2,0.6
		C22.9,8.4,23.5,7.7,23.8,6.8z"/>
	<path fill="#FFFFFF" d="M23.8,8.8c-0.7,0.4-1.6,0.7-2.4,0.9c-0.7-0.7-1.7-1.2-2.8-1.2c-2.1,0-3.8,1.7-3.8,3.8c0,0.3,0,0.6,0.1,0.9
		c-3.2-0.2-6-1.7-7.9-3.9c-0.3,0.6-0.5,1.2-0.5,1.9c0,1.3,0.7,2.5,1.7,3.1c-0.6,0-1.2-0.2-1.7-0.5v0c0,1.8,1.3,3.3,3.1,3.7
		c-0.3,0.1-0.7,0.1-1,0.1c-0.2,0-0.5,0-0.7-0.1c0.5,1.5,1.9,2.6,3.6,2.6c-1.3,1-3,1.6-4.8,1.6c-0.3,0-0.6,0-0.9-0.1
		c1.7,1.1,3.7,1.7,5.9,1.7c7,0,10.9-5.7,10.9-10.7c0-0.2,0-0.3,0-0.5c0.7-0.5,1.4-1.2,1.9-1.9c-0.7,0.3-1.4,0.5-2.2,0.6
		C22.9,10.4,23.5,9.7,23.8,8.8z"/>
</g>
</svg>
