<?xml version="1.0" encoding="utf-8"?>
<!-- Generator: Adobe Illustrator 19.1.0, SVG Export Plug-In . SVG Version: 6.00 Build 0)  -->
<svg version="1.1" id="Layer_1" xmlns="http://www.w3.org/2000/svg" xmlns:xlink="http://www.w3.org/1999/xlink" x="0px" y="0px"
	 viewBox="-290 382 30 30" style="enable-background:new -290 382 30 30;" xml:space="preserve">
<style type="text/css">
	.st0{opacity:0.2;enable-background:new    ;}
</style>
<path class="st0" d="M-265,393.2c0-1.6-1.3-2.9-2.9-2.9c-2.3-0.1-4.7-0.1-7.1-0.1s-4.8,0-7.1,0.1c-1.6,0-2.9,1.3-2.9,2.9
	c-0.1,1.3-0.1,2.5-0.1,3.8s0,2.5,0.1,3.8c0,1.6,1.3,2.9,2.9,2.9c2.3,0.1,4.7,0.1,7.1,0.1s4.8,0,7.1-0.1c1.6,0,2.9-1.3,2.9-2.9
	c0.1-1.3,0.1-2.5,0.1-3.8C-264.8,395.7-264.9,394.5-265,393.2z M-277.7,401.3v-8.6l6.8,4.3L-277.7,401.3z"/>
</svg>
