<?xml version="1.0" encoding="utf-8"?>
<!-- Generator: Adobe Illustrator 18.1.1, SVG Export Plug-In . SVG Version: 6.00 Build 0)  -->
<svg version="1.1" id="Layer_1" xmlns="http://www.w3.org/2000/svg" xmlns:xlink="http://www.w3.org/1999/xlink" x="0px" y="0px"
	 viewBox="0 0 30 30" enable-background="new 0 0 30 30" xml:space="preserve">
<g>
	<path opacity="0.2" d="M25,10.2c0-1.6-1.3-2.9-2.9-2.9c-2.3-0.1-4.7-0.1-7.1-0.1c-2.4,0-4.8,0-7.1,0.1C6.3,7.3,5,8.6,5,10.2
		c-0.1,1.3-0.1,2.5-0.1,3.8c0,1.3,0,2.5,0.1,3.8c0,1.6,1.3,2.9,2.9,2.9c2.3,0.1,4.7,0.1,7.1,0.1c2.4,0,4.8,0,7.1-0.1
		c1.6,0,2.9-1.3,2.9-2.9c0.1-1.3,0.1-2.5,0.1-3.8C25.2,12.7,25.1,11.5,25,10.2z M12.3,18.3V9.7l6.8,4.3L12.3,18.3z"/>
	<path fill="#FFFFFF" d="M25,12.2c0-1.6-1.3-2.9-2.9-2.9c-2.3-0.1-4.7-0.1-7.1-0.1c-2.4,0-4.8,0-7.1,0.1C6.3,9.3,5,10.6,5,12.2
		c-0.1,1.3-0.1,2.5-0.1,3.8c0,1.3,0,2.5,0.1,3.8c0,1.6,1.3,2.9,2.9,2.9c2.3,0.1,4.7,0.1,7.1,0.1c2.4,0,4.8,0,7.1-0.1
		c1.6,0,2.9-1.3,2.9-2.9c0.1-1.3,0.1-2.5,0.1-3.8C25.2,14.7,25.1,13.5,25,12.2z M12.3,20.3v-8.6l6.8,4.3L12.3,20.3z"/>
</g>
</svg>
