<?xml version="1.0" encoding="utf-8"?>
<!-- Generator: Adobe Illustrator 19.1.0, SVG Export Plug-In . SVG Version: 6.00 Build 0)  -->
<svg version="1.1" id="Layer_1" xmlns="http://www.w3.org/2000/svg" xmlns:xlink="http://www.w3.org/1999/xlink" x="0px" y="0px"
	 viewBox="-290 382 30 30" style="enable-background:new -290 382 30 30;" xml:space="preserve">
<style type="text/css">
	.st0{opacity:0.2;enable-background:new    ;}
</style>
<path class="st0" d="M-267.9,387.8h-14.2c-1.2,0-2.2,1-2.2,2.2v14c0,1.2,1,2.2,2.2,2.2h14.2c1.2,0,2.2-1,2.2-2.2v-14
	C-265.7,388.8-266.7,387.8-267.9,387.8z M-271.4,390.4c0-0.3,0.2-0.5,0.5-0.5h2.5c0.3,0,0.5,0.2,0.5,0.5v2.5c0,0.3-0.2,0.5-0.5,0.5
	h-2.5c-0.3,0-0.5-0.2-0.5-0.5V390.4z M-275,393.5c2,0,3.6,1.6,3.6,3.5s-1.6,3.5-3.6,3.5s-3.6-1.6-3.6-3.5S-277,393.5-275,393.5z
	 M-267.8,403.5c0,0.3-0.2,0.5-0.5,0.5h-13.4c-0.3,0-0.5-0.2-0.5-0.5v-8h1.7c-0.1,0.5-0.2,1-0.2,1.5c0,3.1,2.5,5.6,5.7,5.6
	c3.1,0,5.7-2.5,5.7-5.6c0-0.5-0.1-1-0.2-1.5h1.7V403.5z"/>
</svg>
