<?xml version="1.0" encoding="utf-8"?>
<!-- Generator: Adobe Illustrator 19.1.0, SVG Export Plug-In . SVG Version: 6.00 Build 0)  -->
<svg version="1.1" id="Layer_1" xmlns="http://www.w3.org/2000/svg" xmlns:xlink="http://www.w3.org/1999/xlink" x="0px" y="0px"
	 viewBox="-290 382 30 30" style="enable-background:new -290 382 30 30;" xml:space="preserve">
<style type="text/css">
	.st0{opacity:0.2;enable-background:new    ;}
</style>
<path class="st0" d="M-268.6,397c-0.6,0-1.1,0.5-1.1,1.1s0.5,1.1,1.1,1.1s1.1-0.5,1.1-1.1S-268,397-268.6,397z M-281.5,397
	c-0.6,0-1.1,0.5-1.1,1.1s0.5,1.1,1.1,1.1s1.1-0.5,1.1-1.1S-280.9,397-281.5,397z M-263.4,394.4c0.3-1.3,1.3-2.5,1.3-2.5h-4.3
	c-2.4-1.5-5.3-2.3-8.6-2.3c-3.4,0-6.4,0.8-8.8,2.4h-4c0,0,1,1.3,1.3,2.5c-0.8,1.1-1.3,2.3-1.3,3.7c0,3.5,2.9,6.3,6.4,6.3
	c2,0,3.8-0.9,5-2.4l1.4,2l1.4-2c0.6,0.8,1.4,1.4,2.4,1.8c1.6,0.7,3.3,0.8,4.9,0.2c3.3-1.2,5-4.9,3.8-8.1
	C-262.7,395.4-263,394.9-263.4,394.4z M-281.4,403.2c-2.8,0-5.1-2.3-5.1-5.1c0-2.8,2.3-5.1,5.1-5.1c2.8,0,5.1,2.3,5.1,5.1
	C-276.3,400.9-278.6,403.2-281.4,403.2z M-275,397.7c-0.2-3.2-3-5.8-6.3-5.9c1.8-0.8,4-1.2,6.3-1.2s4.4,0.4,6.2,1.2
	c-0.7,0-1.4,0.1-2,0.4c-1.6,0.6-2.9,1.8-3.6,3.3C-274.8,396.2-274.9,396.9-275,397.7z M-266.8,402.9c-1.3,0.5-2.7,0.4-3.9-0.2
	c-1.2-0.6-2.2-1.6-2.7-2.8l0,0c-0.5-1.3-0.4-2.6,0.2-3.9c0.6-1.2,1.6-2.2,2.9-2.6c2.7-1,5.6,0.4,6.6,3
	C-262.8,399-264.1,401.9-266.8,402.9z M-268.6,394.9c-1.8,0-3.2,1.4-3.2,3.1s1.4,3.1,3.2,3.1c1.8,0,3.2-1.4,3.2-3.1
	C-265.4,396.4-266.8,394.9-268.6,394.9z M-268.6,400.1c-1.2,0-2.1-0.9-2.1-2.1c0-1.1,0.9-2.1,2.1-2.1c1.2,0,2.1,0.9,2.1,2.1
	S-267.4,400.1-268.6,400.1z M-281.5,394.9c-1.8,0-3.2,1.4-3.2,3.1s1.4,3.1,3.2,3.1s3.2-1.4,3.2-3.1
	C-278.3,396.4-279.7,394.9-281.5,394.9z M-281.5,400.1c-1.2,0-2.1-0.9-2.1-2.1c0-1.1,0.9-2.1,2.1-2.1c1.1,0,2.1,0.9,2.1,2.1
	S-280.4,400.1-281.5,400.1z"/>
</svg>
